<svg xmlns="http://www.w3.org/2000/svg" xmlns:xlink="http://www.w3.org/1999/xlink" fill="none" version="1.1" width="203" height="160" viewBox="0 0 203 160"><defs><linearGradient x1="1" y1="1" x2="0.02423805743455887" y2="0.1521834284067154" id="master_svg0_7_7994"><stop offset="0%" stop-color="#FFB464" stop-opacity="1"/><stop offset="99.9998688697815%" stop-color="#F0FF64" stop-opacity="1"/></linearGradient><filter id="master_svg1_7_7995" filterUnits="objectBoundingBox" color-interpolation-filters="sRGB" x="0" y="0" width="110" height="79"><feFlood flood-opacity="0" result="BackgroundImageFix"/><feBlend mode="normal" in="SourceGraphic" in2="BackgroundImageFix" result="shape"/><feColorMatrix in="SourceAlpha" type="matrix" result="hardAlpha" values="0 0 0 0 0 0 0 0 0 0 0 0 0 0 0 0 0 0 127 0"/><feOffset dy="4" dx="0"/><feGaussianBlur stdDeviation="5"/><feComposite in2="hardAlpha" operator="arithmetic" k2="-1" k3="1"/><feColorMatrix type="matrix" values="0 0 0 0 0.4284999966621399 0 0 0 0 0.3941156268119812 0 0 0 0 0.17825600504875183 0 0 0 1 0"/><feBlend mode="normal" in2="shape" result="effect1_innerShadow"/></filter><filter id="master_svg2_7_7698" filterUnits="objectBoundingBox" color-interpolation-filters="sRGB" x="-20" y="-15" width="184" height="83"><feFlood flood-opacity="0" result="BackgroundImageFix"/><feColorMatrix in="SourceAlpha" type="matrix" values="0 0 0 0 0 0 0 0 0 0 0 0 0 0 0 0 0 0 127 0"/><feOffset dy="5" dx="0"/><feGaussianBlur stdDeviation="5"/><feColorMatrix type="matrix" values="0 0 0 0 0 0 0 0 0 0 0 0 0 0 0 0 0 0 0.4000000059604645 0"/><feBlend mode="normal" in2="BackgroundImageFix" result="effect1_dropShadow"/><feBlend mode="normal" in="SourceGraphic" in2="effect1_dropShadow" result="shape"/></filter><filter id="master_svg3_7_8635" filterUnits="objectBoundingBox" color-interpolation-filters="sRGB" x="0" y="0" width="78" height="37"><feFlood flood-opacity="0" result="BackgroundImageFix"/><feBlend mode="normal" in="SourceGraphic" in2="BackgroundImageFix" result="shape"/><feGaussianBlur in="BackgroundImage" stdDeviation="2.5"/><feComposite in2="SourceAlpha" operator="in" result="effect1_foregroundBlur"/><feBlend mode="normal" in="SourceGraphic" in2="effect1_foregroundBlur" result="shape"/></filter><linearGradient x1="1" y1="1" x2="0.02423805743455887" y2="0.1521834284067154" id="master_svg4_7_00723"><stop offset="0%" stop-color="#FF3333" stop-opacity="0.30000001192092896"/><stop offset="92.14285612106323%" stop-color="#F0FF64" stop-opacity="0.30000001192092896"/></linearGradient><linearGradient x1="1.1294023990631104" y1="1.1498585939407349" x2="-0.17260292172431946" y2="-0.4275945723056793" id="master_svg5_7_02262"><stop offset="0%" stop-color="#FFFFFF" stop-opacity="1"/><stop offset="100.00011920928955%" stop-color="#FFFFFF" stop-opacity="0"/></linearGradient></defs><g style="mix-blend-mode:passthrough"><g style="mix-blend-mode:passthrough"><g style="mix-blend-mode:passthrough"><rect x="39" y="16" width="144" height="144" rx="20" fill="url(#master_svg0_7_7994)" fill-opacity="1"/></g><g style="mix-blend-mode:passthrough" filter="url(#master_svg1_7_7995)"><path d="M67,97.1875L67,84.2969L85.0312,74L95.4375,74L95.4375,133L82,133L82,88.7344L67,97.1875ZM133.4844,73Q139.3438,73,144.2812,75.5781Q149.2188,78.1562,152.1094,82.9062Q155,87.6406,155,93.8281Q155,98.5781,153.2656,102.7969Q151.5312,107.0156,146.8594,114.25L134.875,133L120.0156,133L131.2969,116.25Q132.5156,114.4062,134.625,111.5938Q132.625,112,130.875,112Q125.2656,112,120.9844,109.6719Q116.7188,107.3281,114.3594,103.0625Q112,98.7812,112,93.0625Q112,87.2656,114.9219,82.6719Q117.8594,78.0625,122.7969,75.5312Q127.7344,73,133.4844,73ZM133.5469,100.75Q136.8125,100.75,138.9062,98.5781Q141,96.3906,141,92.9219Q141,89.4375,138.9062,87.2188Q136.8125,85,133.5469,85Q130.1875,85,128.0938,87.2188Q126,89.4375,126,93Q126,96.4688,128.0938,98.6094Q130.1875,100.75,133.5469,100.75Z" fill="#FFFFFF" fill-opacity="1"/></g><g style="mix-blend-mode:passthrough" filter="url(#master_svg2_7_7698)"><path d="M39,35L39,58L183,58L183,35C183,23.9543,174.046,15,163,15L59,15C47.9543,15,39,23.9543,39,35Z" fill-rule="evenodd" fill="#FF5050" fill-opacity="1"/></g></g><g style="mix-blend-mode:passthrough" filter="url(#master_svg3_7_8635)"><rect x="8" y="36" width="78" height="37" rx="10" fill="url(#master_svg4_7_00723)" fill-opacity="1"/><rect x="8.5" y="36.5" width="77" height="36" rx="9.5" stroke="url(#master_svg5_7_02262)" fill-opacity="0" fill="none" stroke-width="1"/></g><g style="mix-blend-mode:passthrough"><path d="M18.9756,57.0273Q19.4248,57.0273,19.7324,56.8271Q20.04,56.627,20.2793,56.2461L22.125,57.3008Q21.7637,58.2041,20.9092,58.6826Q20.0547,59.1562,18.9756,59.1562Q17.9404,59.1562,17.0176,58.7021Q16.0947,58.248,15.5137,57.3301Q14.9375,56.4072,14.9375,55.0938Q14.9375,53.77539,15.5137,52.85742Q16.0947,51.93945,17.0176,51.48535Q17.9404,51.03125,18.9756,51.03125Q20.0547,51.03125,20.9092,51.50977Q21.7637,51.98828,22.125,52.88672L20.2793,53.95605Q20.0254,53.57031,19.7178,53.36523Q19.4102,53.16016,18.9756,53.16016Q18.2822,53.16016,17.8672,53.69727Q17.457,54.22949,17.457,55.0986Q17.457,55.9678,17.8672,56.5Q18.2822,57.0273,18.9756,57.0273ZM26.6562,51.03125Q28.3848,51.03125,29.3271,51.96875Q30.2695,52.90625,30.2695,54.62012L30.2695,59L28.126,59Q28.043,58.3311,28.0137,58.1064Q27.6426,58.6387,27.125,58.8975Q26.6074,59.1562,25.8066,59.1562Q24.9619,59.1562,24.2637,58.8584Q23.5654,58.5557,23.1553,57.9941Q22.75,57.4326,22.75,56.6611Q22.75,55.8604,23.2041,55.2549Q23.6582,54.64453,24.4248,54.32227Q25.1914,54,26.0947,54Q26.9346,54,27.75,54.26855Q27.6426,53.16016,26.3975,53.16016Q25.3428,53.16016,24.8691,53.83887L23.0918,53.11133Q23.541,52.14453,24.4736,51.58789Q25.4062,51.03125,26.6562,51.03125ZM27.75,55.7285Q27.1543,55.5625,26.627,55.5625Q26.002,55.5625,25.6357,55.8115Q25.2695,56.0557,25.2695,56.4707Q25.2695,56.8467,25.543,57.0664Q25.8213,57.2812,26.2461,57.2812Q26.8223,57.2812,27.2861,56.9199Q27.75,56.5537,27.75,55.9434L27.75,55.7285ZM34.6445,59L32.125,59L32.125,47.4375L34.6445,47.4375L34.6445,59ZM39.8203,51.03125Q40.8701,51.03125,41.6758,51.46582Q42.4863,51.89551,42.9307,52.70605Q43.375,53.5166,43.375,54.59082Q43.375,55.0498,43.2871,55.5625L38.3896,55.5625Q38.5508,56.2607,38.9512,56.6465Q39.3516,57.0273,39.9277,57.0273Q40.4014,57.0273,40.7773,56.7832Q41.1582,56.5391,41.334,56.0654L43.0918,57.2178Q42.7695,58.1455,41.8662,58.6533Q40.9629,59.1562,39.835,59.1562Q38.7998,59.1562,37.8916,58.6924Q36.9883,58.2285,36.4316,57.3057Q35.875,56.3779,35.875,55.0645Q35.875,53.76074,36.4316,52.85254Q36.9883,51.93945,37.8867,51.48535Q38.7852,51.03125,39.8203,51.03125ZM39.752,53.16016Q39.249,53.16016,38.8975,53.38477Q38.5508,53.60449,38.3896,54L40.9336,54Q40.8701,53.58984,40.543,53.375Q40.2207,53.16016,39.752,53.16016ZM49.4053,51.03125Q50.6943,51.03125,51.417,51.88574Q52.1445,52.74023,52.1445,54.40527L52.1445,59L49.625,59L49.625,55.2207Q49.625,54.24414,49.3516,53.70215Q49.083,53.16016,48.4629,53.16016Q47.8379,53.16016,47.4912,53.73145Q47.1445,54.30273,47.1445,55.3281L47.1445,59L44.625,59L44.625,51.1875L46.8906,51.1875Q46.8906,51.9541,47.0078,52.41309Q47.7402,51.03125,49.4053,51.03125ZM58.9805,47.4375L61.5,47.4375L61.5,59L59.2344,59Q59.2344,58.3164,59.1465,57.8379Q58.7266,58.4971,58.126,58.8291Q57.5254,59.1562,56.7832,59.1562Q55.8408,59.1562,55.0645,58.6729Q54.2881,58.1846,53.8291,57.2666Q53.375,56.3486,53.375,55.0938Q53.375,53.82422,53.8291,52.90625Q54.2881,51.9834,55.0596,51.50977Q55.8359,51.03125,56.7783,51.03125Q58.1846,51.03125,58.9805,52.08594L58.9805,47.4375ZM57.4326,57.0273Q58.0771,57.0273,58.5264,56.5146Q58.9805,56.002,58.9805,55.0498Q58.9805,54.1123,58.5361,53.63867Q58.0918,53.16016,57.4326,53.16016Q56.7441,53.16016,56.3193,53.66797Q55.8945,54.1709,55.8945,55.0498Q55.8945,55.9434,56.3193,56.4854Q56.7441,57.0273,57.4326,57.0273ZM66.9688,51.03125Q68.6973,51.03125,69.6396,51.96875Q70.582,52.90625,70.582,54.62012L70.582,59L68.4385,59Q68.3555,58.3311,68.3262,58.1064Q67.9551,58.6387,67.4375,58.8975Q66.9199,59.1562,66.1191,59.1562Q65.2744,59.1562,64.5762,58.8584Q63.8779,58.5557,63.4678,57.9941Q63.0625,57.4326,63.0625,56.6611Q63.0625,55.8604,63.5166,55.2549Q63.9707,54.64453,64.7373,54.32227Q65.5039,54,66.4072,54Q67.2471,54,68.0625,54.26855Q67.9551,53.16016,66.71,53.16016Q65.6553,53.16016,65.1816,53.83887L63.4043,53.11133Q63.8535,52.14453,64.7861,51.58789Q65.7188,51.03125,66.9688,51.03125ZM68.0625,55.7285Q67.4668,55.5625,66.9395,55.5625Q66.3145,55.5625,65.9482,55.8115Q65.582,56.0557,65.582,56.4707Q65.582,56.8467,65.8555,57.0664Q66.1338,57.2812,66.5586,57.2812Q67.1348,57.2812,67.5986,56.9199Q68.0625,56.5537,68.0625,55.9434L68.0625,55.7285ZM77.042,51.03125Q77.5205,51.03125,77.9453,51.17285Q78.375,51.30957,78.585,51.53418L77.6426,53.47266Q77.1641,53.16016,76.6807,53.16016Q75.8848,53.16016,75.4209,53.81934Q74.957,54.47363,74.957,55.5869L74.957,59L72.4375,59L72.4375,51.1875L74.7031,51.1875Q74.7031,51.96387,74.8203,52.45215Q75.167,51.75391,75.7432,51.39258Q76.3242,51.03125,77.042,51.03125Z" fill="#FFFFFF" fill-opacity="0.5"/></g></g></svg>