<svg xmlns="http://www.w3.org/2000/svg" xmlns:xlink="http://www.w3.org/1999/xlink" fill="none" version="1.1" width="430" height="291" viewBox="0 0 430 291"><g style="mix-blend-mode:passthrough"><g style="mix-blend-mode:passthrough"><g style="mix-blend-mode:passthrough"><path d="M286,10L57.598,10Q55.5269,10,54.0625,11.46447Q52.598,12.928930000000001,52.598,15L52.598,159.718Q52.598,164.213,50.1259,167.967L34.3159,191.977Q33.1891,193.688,33.4576,195.423Q33.7133,197.076,35.0372,198.341Q36.3611,199.607,38.0236,199.788Q39.7691,199.977,41.4276,198.774L94.0959,160.572Q98.0359,157.714,102.903,157.714L286,157.714Q288.071,157.714,289.536,156.25Q291,154.785,291,152.714L291,15Q291,12.92892,289.536,11.46447Q288.071,10,286,10ZM286,0Q289.048,0,291.84,1.1808299999999998Q294.533,2.31978,296.607,4.3934Q298.68,6.46702,299.819,9.159790000000001Q301,11.951640000000001,301,15L301,152.714Q301,155.763,299.819,158.555Q298.68,161.247,296.607,163.321Q294.533,165.395,291.84,166.533Q289.048,167.714,286,167.714L102.903,167.714Q101.281,167.714,99.9674,168.667L47.2991,206.869Q42.5203,210.335,36.9428,209.729Q31.9057,209.181,28.1278,205.571Q24.3499,201.96,23.5752,196.953Q22.7173,191.408,25.964,186.478L41.774,162.467Q42.598,161.216,42.598,159.718L42.598,15Q42.598,11.95158,43.7788,9.159790000000001Q44.9178,6.46703,46.9914,4.3933990000000005Q49.065,2.31977,51.7578,1.1808299999999998Q54.5496,0,57.598,0L286,0Z" fill="#D8D8D8" fill-opacity="1"/></g><g style="mix-blend-mode:passthrough"><ellipse cx="105.9289379119873" cy="81.66666793823242" rx="19.532995223999023" ry="19.542484283447266" fill="#FFFFFF" fill-opacity="1"/></g><g style="mix-blend-mode:passthrough"><ellipse cx="233.64467430114746" cy="81.66666793823242" rx="19.532995223999023" ry="19.542484283447266" fill="#FFFFFF" fill-opacity="1"/></g><g style="mix-blend-mode:passthrough"><ellipse cx="169.78680992126465" cy="81.66666793823242" rx="19.532995223999023" ry="19.542484283447266" fill="#FFFFFF" fill-opacity="1"/></g></g><g style="mix-blend-mode:passthrough" transform="matrix(-1,0,0,1,860,0)"><g style="mix-blend-mode:passthrough"><path d="M675,98L481.005,98Q478.93399999999997,98,477.4695,99.46447Q476.005,100.92893,476.005,103L476.005,225.773Q476.005,230.271,473.5303,234.026L464.3291,247.99Q463.2017,249.701,463.4696,251.436Q463.7248,253.089,465.0483,254.354Q466.3718,255.62,468.0342,255.802Q469.7795,255.992,471.4385,254.789L510.2942,226.626Q514.2328,223.771,519.0972,223.771L675,223.771Q677.071,223.771,678.5360000000001,222.307Q680,220.84199999999998,680,218.77100000000002L680,103Q680,100.92895,678.5360000000001,99.46448Q677.071,98,675,98L675,98ZM675,88Q678.048,88,680.84,89.18082Q683.533,90.31976,685.607,92.393389Q687.6800000000001,94.46703,688.819,97.15978Q690,99.95163,690,103L690,218.77100000000002Q690,221.82,688.819,224.612Q687.6800000000001,227.304,685.607,229.378Q683.533,231.452,680.84,232.591Q678.048,233.771,675,233.771L519.0972,233.771Q517.4757,233.771,516.1629,234.723L477.3072,262.88599999999997Q472.5272,266.351,466.95,265.743Q461.9131,265.193,458.1365,261.581Q454.3598,257.969,453.5867,252.962Q452.7307,247.417,455.9789,242.488L465.1801,228.524Q466.005,227.272,466.005,225.773L466.005,103Q466.005,99.95158,467.1859,97.15979Q468.3248,94.46702,470.3984,92.393398Q472.4721,90.31977,475.1648,89.18083Q477.9566,88,481.005,88L675,88L675,88Z" fill="#D8D8D8" fill-opacity="1"/></g><g style="mix-blend-mode:passthrough"><ellipse cx="521.2563438415527" cy="159" rx="16.827411651611328" ry="16.823528289794922" fill="#FFFFFF" fill-opacity="1"/></g><g style="mix-blend-mode:passthrough"><ellipse cx="631.2817268371582" cy="159" rx="16.827411651611328" ry="16.823528289794922" fill="#FFFFFF" fill-opacity="1"/></g><g style="mix-blend-mode:passthrough"><ellipse cx="576.2690467834473" cy="159" rx="16.827411651611328" ry="16.823528289794922" fill="#FFFFFF" fill-opacity="1"/></g></g></g></svg>