<svg xmlns="http://www.w3.org/2000/svg" xmlns:xlink="http://www.w3.org/1999/xlink" fill="none" version="1.1" width="297" height="343" viewBox="0 0 297 343"><g style="mix-blend-mode:passthrough"><g style="mix-blend-mode:passthrough"><g style="mix-blend-mode:passthrough"><g style="mix-blend-mode:passthrough"><path d="M135,168L34,168L34,160L135,160L135,168ZM139,164Q139,164.196507,138.981,164.392069Q138.961,164.58763,138.923,164.780361Q138.885,164.973093,138.828,165.16114Q138.77100000000002,165.34918,138.696,165.53073Q138.62,165.71228,138.52800000000002,165.88559Q138.435,166.05889,138.326,166.22228Q138.21699999999998,166.38567,138.09199999999998,166.53757Q137.96699999999998,166.68948,137.828,166.82843Q137.689,166.96738,137.538,167.09204Q137.386,167.2167,137.22199999999998,167.32588Q137.059,167.43505,136.886,167.52768Q136.712,167.62032,136.531,167.69552Q136.349,167.77072,136.161,167.82776Q135.973,167.8848,135.78,167.92314Q135.588,167.96148,135.392,167.98074Q135.197,168,135,168Q134.803,168,134.608,167.98074Q134.412,167.96148,134.22,167.92314Q134.027,167.8848,133.8388,167.82776Q133.6508,167.77072,133.4693,167.69552Q133.2877,167.62032,133.1144,167.52768Q132.9411,167.43505,132.77769999999998,167.32588Q132.61430000000001,167.2167,132.4624,167.09204Q132.3105,166.96738,132.1716,166.82843Q132.0326,166.68948,131.90800000000002,166.53757Q131.7833,166.38567,131.6741,166.22228Q131.5649,166.05889,131.47230000000002,165.88559Q131.3797,165.71228,131.30450000000002,165.53073Q131.2293,165.34918,131.1722,165.16114Q131.11520000000002,164.973093,131.0768,164.780361Q131.0385,164.58763,131.0193,164.392069Q131,164.196507,131,164Q131,163.803493,131.0193,163.607931Q131.0385,163.41237,131.0769,163.219639Q131.11520000000002,163.026907,131.1722,162.83886Q131.2293,162.65082,131.30450000000002,162.46927Q131.3797,162.28772,131.47230000000002,162.11441Q131.5649,161.94111,131.6741,161.77772Q131.7833,161.61433,131.90800000000002,161.46243Q132.0326,161.31052,132.1716,161.17157Q132.3105,161.03262,132.4624,160.90796Q132.61430000000001,160.7833,132.77769999999998,160.67412Q132.9411,160.56495,133.1144,160.47232Q133.2877,160.37968,133.4693,160.30448Q133.6508,160.22928,133.8389,160.17224Q134.027,160.1152,134.22,160.07686Q134.412,160.03852,134.608,160.01926Q134.803,160,135,160Q135.197,160,135.392,160.01926Q135.588,160.03852,135.78,160.07686Q135.973,160.1152,136.161,160.17224Q136.349,160.22928,136.531,160.30448Q136.712,160.37968,136.886,160.47232Q137.059,160.56495,137.22199999999998,160.67412Q137.386,160.7833,137.538,160.90796Q137.689,161.03262,137.828,161.17157Q137.96699999999998,161.31052,138.09199999999998,161.46243Q138.21699999999998,161.61433,138.326,161.77772Q138.435,161.94111,138.52800000000002,162.11441Q138.62,162.28772,138.696,162.46927Q138.77100000000002,162.65082,138.828,162.83886Q138.885,163.026907,138.923,163.219639Q138.961,163.41237,138.981,163.607931Q139,163.803493,139,164ZM38,164Q38,164.196507,37.98074,164.392069Q37.96148,164.58763,37.923140000000004,164.780361Q37.8848,164.973093,37.82776,165.16114Q37.77072,165.34918,37.69552,165.53073Q37.62032,165.71228,37.527680000000004,165.88559Q37.43505,166.05889,37.32588,166.22228Q37.2167,166.38567,37.09204,166.53757Q36.96738,166.68948,36.82843,166.82843Q36.68948,166.96738,36.53757,167.09204Q36.38567,167.2167,36.22228,167.32588Q36.05889,167.43505,35.88559,167.52768Q35.71228,167.62032,35.53073,167.69552Q35.34918,167.77072,35.16114,167.82776Q34.973093,167.8848,34.780361,167.92314Q34.58763,167.96148,34.392069,167.98074Q34.196507,168,34,168Q33.803493,168,33.607931,167.98074Q33.41237,167.96148,33.219639,167.92314Q33.026907,167.8848,32.83886,167.82776Q32.65082,167.77072,32.46927,167.69552Q32.28772,167.62032,32.11441,167.52768Q31.941110000000002,167.43505,31.77772,167.32588Q31.61433,167.2167,31.46243,167.09204Q31.31052,166.96738,31.17157,166.82843Q31.03262,166.68948,30.90796,166.53757Q30.7833,166.38567,30.67412,166.22228Q30.56495,166.05889,30.47232,165.88559Q30.37968,165.71228,30.304479999999998,165.53073Q30.22928,165.34918,30.17224,165.16114Q30.1152,164.973093,30.07686,164.780361Q30.03852,164.58763,30.01926,164.392069Q30,164.196507,30,164Q30,163.803493,30.01926,163.607931Q30.03852,163.41237,30.07686,163.219639Q30.1152,163.026907,30.17224,162.83886Q30.22928,162.65082,30.304479999999998,162.46927Q30.37968,162.28772,30.47232,162.11441Q30.56495,161.94111,30.67412,161.77772Q30.7833,161.61433,30.90796,161.46243Q31.03262,161.31052,31.17157,161.17157Q31.31052,161.03262,31.46243,160.90796Q31.61433,160.7833,31.77772,160.67412Q31.941110000000002,160.56495,32.11441,160.47232Q32.28772,160.37968,32.46927,160.30448Q32.65082,160.22928,32.83886,160.17224Q33.026907,160.1152,33.219639,160.07686Q33.41237,160.03852,33.607931,160.01926Q33.803493,160,34,160Q34.196507,160,34.392069,160.01926Q34.58763,160.03852,34.780361,160.07686Q34.973093,160.1152,35.16114,160.17224Q35.34918,160.22928,35.53073,160.30448Q35.71228,160.37968,35.88559,160.47232Q36.05889,160.56495,36.22228,160.67412Q36.38567,160.7833,36.53757,160.90796Q36.68948,161.03262,36.82843,161.17157Q36.96738,161.31052,37.09204,161.46243Q37.2167,161.61433,37.32588,161.77772Q37.43505,161.94111,37.527680000000004,162.11441Q37.62032,162.28772,37.69552,162.46927Q37.77072,162.65082,37.82776,162.83886Q37.8848,163.026907,37.923140000000004,163.219639Q37.96148,163.41237,37.98074,163.607931Q38,163.803493,38,164Z" fill="#FFFFFF" fill-opacity="1"/></g><g style="mix-blend-mode:passthrough"><path d="M135,195L34,195L34,187L135,187L135,195ZM139,191Q139,191.196507,138.981,191.392069Q138.961,191.58763,138.923,191.780361Q138.885,191.973093,138.828,192.16114Q138.77100000000002,192.34918,138.696,192.53073Q138.62,192.71228,138.52800000000002,192.88559Q138.435,193.05889,138.326,193.22228Q138.21699999999998,193.38567,138.09199999999998,193.53757Q137.96699999999998,193.68948,137.828,193.82843Q137.689,193.96738,137.538,194.09204Q137.386,194.2167,137.22199999999998,194.32588Q137.059,194.43505,136.886,194.52768Q136.712,194.62032,136.531,194.69552Q136.349,194.77072,136.161,194.82776Q135.973,194.8848,135.78,194.92314Q135.588,194.96148,135.392,194.98074Q135.197,195,135,195Q134.803,195,134.608,194.98074Q134.412,194.96148,134.22,194.92314Q134.027,194.8848,133.8388,194.82776Q133.6508,194.77072,133.4693,194.69552Q133.2877,194.62032,133.1144,194.52768Q132.9411,194.43505,132.77769999999998,194.32588Q132.61430000000001,194.2167,132.4624,194.09204Q132.3105,193.96738,132.1716,193.82843Q132.0326,193.68948,131.90800000000002,193.53757Q131.7833,193.38567,131.6741,193.22228Q131.5649,193.05889,131.47230000000002,192.88559Q131.3797,192.71228,131.30450000000002,192.53073Q131.2293,192.34918,131.1722,192.16114Q131.11520000000002,191.973093,131.0768,191.780361Q131.0385,191.58763,131.0193,191.392069Q131,191.196507,131,191Q131,190.803493,131.0193,190.607931Q131.0385,190.41237,131.0769,190.219639Q131.11520000000002,190.026907,131.1722,189.83886Q131.2293,189.65082,131.30450000000002,189.46927Q131.3797,189.28772,131.47230000000002,189.11441Q131.5649,188.94111,131.6741,188.77772Q131.7833,188.61433,131.90800000000002,188.46243Q132.0326,188.31052,132.1716,188.17157Q132.3105,188.03262,132.4624,187.90796Q132.61430000000001,187.7833,132.77769999999998,187.67412Q132.9411,187.56495,133.1144,187.47232Q133.2877,187.37968,133.4693,187.30448Q133.6508,187.22928,133.8389,187.17224Q134.027,187.1152,134.22,187.07686Q134.412,187.03852,134.608,187.01926Q134.803,187,135,187Q135.197,187,135.392,187.01926Q135.588,187.03852,135.78,187.07686Q135.973,187.1152,136.161,187.17224Q136.349,187.22928,136.531,187.30448Q136.712,187.37968,136.886,187.47232Q137.059,187.56495,137.22199999999998,187.67412Q137.386,187.7833,137.538,187.90796Q137.689,188.03262,137.828,188.17157Q137.96699999999998,188.31052,138.09199999999998,188.46243Q138.21699999999998,188.61433,138.326,188.77772Q138.435,188.94111,138.52800000000002,189.11441Q138.62,189.28772,138.696,189.46927Q138.77100000000002,189.65082,138.828,189.83886Q138.885,190.026907,138.923,190.219639Q138.961,190.41237,138.981,190.607931Q139,190.803493,139,191ZM38,191Q38,191.196507,37.98074,191.392069Q37.96148,191.58763,37.923140000000004,191.780361Q37.8848,191.973093,37.82776,192.16114Q37.77072,192.34918,37.69552,192.53073Q37.62032,192.71228,37.527680000000004,192.88559Q37.43505,193.05889,37.32588,193.22228Q37.2167,193.38567,37.09204,193.53757Q36.96738,193.68948,36.82843,193.82843Q36.68948,193.96738,36.53757,194.09204Q36.38567,194.2167,36.22228,194.32588Q36.05889,194.43505,35.88559,194.52768Q35.71228,194.62032,35.53073,194.69552Q35.34918,194.77072,35.16114,194.82776Q34.973093,194.8848,34.780361,194.92314Q34.58763,194.96148,34.392069,194.98074Q34.196507,195,34,195Q33.803493,195,33.607931,194.98074Q33.41237,194.96148,33.219639,194.92314Q33.026907,194.8848,32.83886,194.82776Q32.65082,194.77072,32.46927,194.69552Q32.28772,194.62032,32.11441,194.52768Q31.941110000000002,194.43505,31.77772,194.32588Q31.61433,194.2167,31.46243,194.09204Q31.31052,193.96738,31.17157,193.82843Q31.03262,193.68948,30.90796,193.53757Q30.7833,193.38567,30.67412,193.22228Q30.56495,193.05889,30.47232,192.88559Q30.37968,192.71228,30.304479999999998,192.53073Q30.22928,192.34918,30.17224,192.16114Q30.1152,191.973093,30.07686,191.780361Q30.03852,191.58763,30.01926,191.392069Q30,191.196507,30,191Q30,190.803493,30.01926,190.607931Q30.03852,190.41237,30.07686,190.219639Q30.1152,190.026907,30.17224,189.83886Q30.22928,189.65082,30.304479999999998,189.46927Q30.37968,189.28772,30.47232,189.11441Q30.56495,188.94111,30.67412,188.77772Q30.7833,188.61433,30.90796,188.46243Q31.03262,188.31052,31.17157,188.17157Q31.31052,188.03262,31.46243,187.90796Q31.61433,187.7833,31.77772,187.67412Q31.941110000000002,187.56495,32.11441,187.47232Q32.28772,187.37968,32.46927,187.30448Q32.65082,187.22928,32.83886,187.17224Q33.026907,187.1152,33.219639,187.07686Q33.41237,187.03852,33.607931,187.01926Q33.803493,187,34,187Q34.196507,187,34.392069,187.01926Q34.58763,187.03852,34.780361,187.07686Q34.973093,187.1152,35.16114,187.17224Q35.34918,187.22928,35.53073,187.30448Q35.71228,187.37968,35.88559,187.47232Q36.05889,187.56495,36.22228,187.67412Q36.38567,187.7833,36.53757,187.90796Q36.68948,188.03262,36.82843,188.17157Q36.96738,188.31052,37.09204,188.46243Q37.2167,188.61433,37.32588,188.77772Q37.43505,188.94111,37.527680000000004,189.11441Q37.62032,189.28772,37.69552,189.46927Q37.77072,189.65082,37.82776,189.83886Q37.8848,190.026907,37.923140000000004,190.219639Q37.96148,190.41237,37.98074,190.607931Q38,190.803493,38,191Z" fill="#FFFFFF" fill-opacity="1"/></g><g style="mix-blend-mode:passthrough"><path d="M135,222L34,222L34,214L135,214L135,222ZM139,218Q139,218.196507,138.981,218.392069Q138.961,218.58763,138.923,218.780361Q138.885,218.973093,138.828,219.16114Q138.77100000000002,219.34918,138.696,219.53073Q138.62,219.71228,138.52800000000002,219.88559Q138.435,220.05889,138.326,220.22228Q138.21699999999998,220.38567,138.09199999999998,220.53757Q137.96699999999998,220.68948,137.828,220.82843Q137.689,220.96738,137.538,221.09204Q137.386,221.2167,137.22199999999998,221.32588Q137.059,221.43505,136.886,221.52768Q136.712,221.62032,136.531,221.69552Q136.349,221.77072,136.161,221.82776Q135.973,221.8848,135.78,221.92314Q135.588,221.96148,135.392,221.98074Q135.197,222,135,222Q134.803,222,134.608,221.98074Q134.412,221.96148,134.22,221.92314Q134.027,221.8848,133.8388,221.82776Q133.6508,221.77072,133.4693,221.69552Q133.2877,221.62032,133.1144,221.52768Q132.9411,221.43505,132.77769999999998,221.32588Q132.61430000000001,221.2167,132.4624,221.09204Q132.3105,220.96738,132.1716,220.82843Q132.0326,220.68948,131.90800000000002,220.53757Q131.7833,220.38567,131.6741,220.22228Q131.5649,220.05889,131.47230000000002,219.88559Q131.3797,219.71228,131.30450000000002,219.53073Q131.2293,219.34918,131.1722,219.16114Q131.11520000000002,218.973093,131.0768,218.780361Q131.0385,218.58763,131.0193,218.392069Q131,218.196507,131,218Q131,217.803493,131.0193,217.607931Q131.0385,217.41237,131.0769,217.219639Q131.11520000000002,217.026907,131.1722,216.83886Q131.2293,216.65082,131.30450000000002,216.46927Q131.3797,216.28772,131.47230000000002,216.11441Q131.5649,215.94111,131.6741,215.77772Q131.7833,215.61433,131.90800000000002,215.46243Q132.0326,215.31052,132.1716,215.17157Q132.3105,215.03262,132.4624,214.90796Q132.61430000000001,214.7833,132.77769999999998,214.67412Q132.9411,214.56495,133.1144,214.47232Q133.2877,214.37968,133.4693,214.30448Q133.6508,214.22928,133.8389,214.17224Q134.027,214.1152,134.22,214.07686Q134.412,214.03852,134.608,214.01926Q134.803,214,135,214Q135.197,214,135.392,214.01926Q135.588,214.03852,135.78,214.07686Q135.973,214.1152,136.161,214.17224Q136.349,214.22928,136.531,214.30448Q136.712,214.37968,136.886,214.47232Q137.059,214.56495,137.22199999999998,214.67412Q137.386,214.7833,137.538,214.90796Q137.689,215.03262,137.828,215.17157Q137.96699999999998,215.31052,138.09199999999998,215.46243Q138.21699999999998,215.61433,138.326,215.77772Q138.435,215.94111,138.52800000000002,216.11441Q138.62,216.28772,138.696,216.46927Q138.77100000000002,216.65082,138.828,216.83886Q138.885,217.026907,138.923,217.219639Q138.961,217.41237,138.981,217.607931Q139,217.803493,139,218ZM38,218Q38,218.196507,37.98074,218.392069Q37.96148,218.58763,37.923140000000004,218.780361Q37.8848,218.973093,37.82776,219.16114Q37.77072,219.34918,37.69552,219.53073Q37.62032,219.71228,37.527680000000004,219.88559Q37.43505,220.05889,37.32588,220.22228Q37.2167,220.38567,37.09204,220.53757Q36.96738,220.68948,36.82843,220.82843Q36.68948,220.96738,36.53757,221.09204Q36.38567,221.2167,36.22228,221.32588Q36.05889,221.43505,35.88559,221.52768Q35.71228,221.62032,35.53073,221.69552Q35.34918,221.77072,35.16114,221.82776Q34.973093,221.8848,34.780361,221.92314Q34.58763,221.96148,34.392069,221.98074Q34.196507,222,34,222Q33.803493,222,33.607931,221.98074Q33.41237,221.96148,33.219639,221.92314Q33.026907,221.8848,32.83886,221.82776Q32.65082,221.77072,32.46927,221.69552Q32.28772,221.62032,32.11441,221.52768Q31.941110000000002,221.43505,31.77772,221.32588Q31.61433,221.2167,31.46243,221.09204Q31.31052,220.96738,31.17157,220.82843Q31.03262,220.68948,30.90796,220.53757Q30.7833,220.38567,30.67412,220.22228Q30.56495,220.05889,30.47232,219.88559Q30.37968,219.71228,30.304479999999998,219.53073Q30.22928,219.34918,30.17224,219.16114Q30.1152,218.973093,30.07686,218.780361Q30.03852,218.58763,30.01926,218.392069Q30,218.196507,30,218Q30,217.803493,30.01926,217.607931Q30.03852,217.41237,30.07686,217.219639Q30.1152,217.026907,30.17224,216.83886Q30.22928,216.65082,30.304479999999998,216.46927Q30.37968,216.28772,30.47232,216.11441Q30.56495,215.94111,30.67412,215.77772Q30.7833,215.61433,30.90796,215.46243Q31.03262,215.31052,31.17157,215.17157Q31.31052,215.03262,31.46243,214.90796Q31.61433,214.7833,31.77772,214.67412Q31.941110000000002,214.56495,32.11441,214.47232Q32.28772,214.37968,32.46927,214.30448Q32.65082,214.22928,32.83886,214.17224Q33.026907,214.1152,33.219639,214.07686Q33.41237,214.03852,33.607931,214.01926Q33.803493,214,34,214Q34.196507,214,34.392069,214.01926Q34.58763,214.03852,34.780361,214.07686Q34.973093,214.1152,35.16114,214.17224Q35.34918,214.22928,35.53073,214.30448Q35.71228,214.37968,35.88559,214.47232Q36.05889,214.56495,36.22228,214.67412Q36.38567,214.7833,36.53757,214.90796Q36.68948,215.03262,36.82843,215.17157Q36.96738,215.31052,37.09204,215.46243Q37.2167,215.61433,37.32588,215.77772Q37.43505,215.94111,37.527680000000004,216.11441Q37.62032,216.28772,37.69552,216.46927Q37.77072,216.65082,37.82776,216.83886Q37.8848,217.026907,37.923140000000004,217.219639Q37.96148,217.41237,37.98074,217.607931Q38,217.803493,38,218Z" fill="#FFFFFF" fill-opacity="1"/></g><g style="mix-blend-mode:passthrough"><path d="M121,5L121,60Q121,65.08959999999999,122.963,69.7296Q124.86,74.2151,128.322,77.6777Q131.785,81.1402,136.27,83.0374Q140.91,85,146,85L167,85L212,85L212,95L167,95L146,95Q138.883,95,132.375,92.2475Q126.093,89.5904,121.251,84.7487Q116.41,79.907,113.753,73.6251Q111,67.1174,111,60L111,5L121,5ZM60.5,10L35,10Q29.9104,10,25.2704,11.96257Q20.7849,13.85979,17.3223,17.3223Q13.8598,20.7849,11.96257,25.2704Q10,29.9105,10,35L10,254Q10,259.09000000000003,11.96257,263.73Q13.8598,268.215,17.3223,271.678Q20.7849,275.14,25.2704,277.037Q29.9104,279,35,279L182,279Q187.09,279,191.73,277.037Q196.215,275.14,199.678,271.678Q203.14,268.215,205.037,263.73Q207,259.09000000000003,207,254L207,90L212,90L208.685,93.7435L112.685,8.74349L116,5L116,10L60.5,10ZM60.5,0L117.895,0L217,87.7488L217,254Q217,261.117,214.247,267.625Q211.59,273.907,206.749,278.749Q201.907,283.59,195.625,286.247Q189.117,289,182,289L35,289Q27.8826,289,21.3749,286.247Q15.093,283.59,10.25126,278.749Q5.409555,273.907,2.75253,267.625Q0,261.117,0,254L0,35Q0,27.8826,2.75253,21.3749Q5.409556,15.093,10.25126,10.25126Q15.093,5.40955,21.3749,2.75253Q27.8826,0,35,0L60.5,0Z" fill="#FFFFFF" fill-opacity="1"/></g></g><g style="mix-blend-mode:passthrough"><g style="mix-blend-mode:passthrough"><path d="M241.03863730468748,262.43011474609375L174.1932373046875,262.43011474609375L174.1932373046875,254.43011474609375L241.03863730468748,254.43011474609375L241.03863730468748,262.43011474609375ZM245.03863730468748,258.43011474609375Q245.03863730468748,258.62662174609375,245.0193373046875,258.82218374609374Q245.00013730468748,259.01774474609374,244.96173730468752,259.2104757460938Q244.9234373046875,259.40320774609376,244.8664373046875,259.59125474609374Q244.80933730468752,259.77929474609374,244.7341373046875,259.96084474609376Q244.6589373046875,260.14239474609377,244.5663373046875,260.31570474609373Q244.4736373046875,260.48900474609377,244.3645373046875,260.65239474609376Q244.2553373046875,260.81578474609375,244.1306373046875,260.96768474609377Q244.00603730468748,261.11959474609375,243.8670373046875,261.2585447460938Q243.7281373046875,261.39749474609374,243.57623730468748,261.52215474609375Q243.4243373046875,261.64681474609375,243.2609373046875,261.75599474609373Q243.0975373046875,261.86516474609374,242.9242373046875,261.9577947460937Q242.7509373046875,262.05043474609374,242.5693373046875,262.12563474609374Q242.38783730468748,262.20083474609373,242.19973730468752,262.25787474609376Q242.0117373046875,262.31491474609373,241.8190373046875,262.35325474609374Q241.6262373046875,262.39159474609374,241.4307373046875,262.4108547460938Q241.2351373046875,262.43011474609375,241.03863730468748,262.43011474609375Q240.8421373046875,262.43011474609375,240.6465373046875,262.4108547460938Q240.4510373046875,262.39159474609374,240.2582373046875,262.35325474609374Q240.0655373046875,262.31491474609373,239.8775373046875,262.25787474609376Q239.6894373046875,262.20083474609373,239.50793730468752,262.12563474609374Q239.3263373046875,262.05043474609374,239.1530373046875,261.9577947460937Q238.9797373046875,261.86516474609374,238.8163373046875,261.75599474609373Q238.6529373046875,261.64681474609375,238.5010373046875,261.52215474609375Q238.3491373046875,261.39749474609374,238.2102373046875,261.2585447460938Q238.0712373046875,261.11959474609375,237.9466373046875,260.96768474609377Q237.8219373046875,260.81578474609375,237.7127373046875,260.65239474609376Q237.6035373046875,260.48900474609377,237.5109373046875,260.31570474609373Q237.4183373046875,260.14239474609377,237.3431373046875,259.96084474609376Q237.2679373046875,259.77929474609374,237.21083730468752,259.59125474609374Q237.1538373046875,259.40320774609376,237.1155373046875,259.2104757460938Q237.07713730468748,259.01774474609374,237.0579373046875,258.82218374609374Q237.03863730468748,258.62662174609375,237.03863730468748,258.43011474609375Q237.03863730468748,258.23360774609375,237.0579373046875,258.03804574609376Q237.07713730468748,257.84248474609376,237.1155373046875,257.6497537460937Q237.1538373046875,257.45702174609374,237.21083730468752,257.26897474609376Q237.2679373046875,257.08093474609376,237.3431373046875,256.89938474609374Q237.4183373046875,256.71783474609373,237.5109373046875,256.54452474609377Q237.6035373046875,256.37122474609373,237.7127373046875,256.20783474609374Q237.8219373046875,256.04444474609375,237.9466373046875,255.89254474609376Q238.0712373046875,255.74063474609375,238.2102373046875,255.60168474609375Q238.3491373046875,255.46273474609376,238.5010373046875,255.33807474609375Q238.6529373046875,255.21341474609375,238.8163373046875,255.10423474609374Q238.9797373046875,254.99506474609376,239.1530373046875,254.90243474609375Q239.3263373046875,254.80979474609376,239.50793730468752,254.73459474609376Q239.6894373046875,254.65939474609374,239.8775373046875,254.60235474609374Q240.0655373046875,254.54531474609374,240.2582373046875,254.50697474609376Q240.4510373046875,254.46863474609376,240.6465373046875,254.44937474609375Q240.8421373046875,254.43011474609375,241.03863730468748,254.43011474609375Q241.2351373046875,254.43011474609375,241.4307373046875,254.44937474609375Q241.6262373046875,254.46863474609376,241.8190373046875,254.50697474609376Q242.0117373046875,254.54531474609374,242.19973730468752,254.60235474609374Q242.38783730468748,254.65939474609374,242.5693373046875,254.73459474609376Q242.7509373046875,254.80979474609376,242.9242373046875,254.90243474609375Q243.0975373046875,254.99506474609376,243.2609373046875,255.10423474609374Q243.4243373046875,255.21341474609375,243.57623730468748,255.33807474609375Q243.7281373046875,255.46273474609376,243.8670373046875,255.60168474609375Q244.00603730468748,255.74063474609375,244.1306373046875,255.89254474609376Q244.2553373046875,256.04444474609375,244.3645373046875,256.20783474609374Q244.4736373046875,256.37122474609373,244.5663373046875,256.54452474609377Q244.6589373046875,256.71783474609373,244.7341373046875,256.89938474609374Q244.80933730468752,257.08093474609376,244.8664373046875,257.26897474609376Q244.9234373046875,257.45702174609374,244.96173730468752,257.6497537460937Q245.00013730468748,257.84248474609376,245.0193373046875,258.03804574609376Q245.03863730468748,258.23360774609375,245.03863730468748,258.43011474609375ZM178.1932373046875,258.43011474609375Q178.1932373046875,258.62662174609375,178.1739773046875,258.82218374609374Q178.1547173046875,259.01774474609374,178.1163773046875,259.2104757460938Q178.0780373046875,259.40320774609376,178.0209973046875,259.59125474609374Q177.9639573046875,259.77929474609374,177.8887573046875,259.96084474609376Q177.8135573046875,260.14239474609377,177.7209173046875,260.31570474609373Q177.6282873046875,260.48900474609377,177.5191173046875,260.65239474609376Q177.4099373046875,260.81578474609375,177.2852773046875,260.96768474609377Q177.1606173046875,261.11959474609375,177.0216673046875,261.2585447460938Q176.8827173046875,261.39749474609374,176.7308073046875,261.52215474609375Q176.5789073046875,261.64681474609375,176.4155173046875,261.75599474609373Q176.2521273046875,261.86516474609374,176.0788273046875,261.9577947460937Q175.9055173046875,262.05043474609374,175.7239673046875,262.12563474609374Q175.5424173046875,262.20083474609373,175.3543773046875,262.25787474609376Q175.1663303046875,262.31491474609373,174.9735983046875,262.35325474609374Q174.7808673046875,262.39159474609374,174.5853063046875,262.4108547460938Q174.3897443046875,262.43011474609375,174.1932373046875,262.43011474609375Q173.9967303046875,262.43011474609375,173.8011683046875,262.4108547460938Q173.6056073046875,262.39159474609374,173.4128763046875,262.35325474609374Q173.2201443046875,262.31491474609373,173.0320973046875,262.25787474609376Q172.8440573046875,262.20083474609373,172.6625073046875,262.12563474609374Q172.4809573046875,262.05043474609374,172.3076473046875,261.9577947460937Q172.1343473046875,261.86516474609374,171.9709573046875,261.75599474609373Q171.8075673046875,261.64681474609375,171.6556673046875,261.52215474609375Q171.5037573046875,261.39749474609374,171.3648073046875,261.2585447460938Q171.2258573046875,261.11959474609375,171.1011973046875,260.96768474609377Q170.9765373046875,260.81578474609375,170.8673573046875,260.65239474609376Q170.7581873046875,260.48900474609377,170.6655573046875,260.31570474609373Q170.5729173046875,260.14239474609377,170.4977173046875,259.96084474609376Q170.4225173046875,259.77929474609374,170.3654773046875,259.59125474609374Q170.3084373046875,259.40320774609376,170.2700973046875,259.2104757460938Q170.2317573046875,259.01774474609374,170.2124973046875,258.82218374609374Q170.1932373046875,258.62662174609375,170.1932373046875,258.43011474609375Q170.1932373046875,258.23360774609375,170.2124973046875,258.03804574609376Q170.2317573046875,257.84248474609376,170.2700973046875,257.6497537460937Q170.3084373046875,257.45702174609374,170.3654773046875,257.26897474609376Q170.4225173046875,257.08093474609376,170.4977173046875,256.89938474609374Q170.5729173046875,256.71783474609373,170.6655573046875,256.54452474609377Q170.7581873046875,256.37122474609373,170.8673573046875,256.20783474609374Q170.9765373046875,256.04444474609375,171.1011973046875,255.89254474609376Q171.2258573046875,255.74063474609375,171.3648073046875,255.60168474609375Q171.5037573046875,255.46273474609376,171.6556673046875,255.33807474609375Q171.8075673046875,255.21341474609375,171.9709573046875,255.10423474609374Q172.1343473046875,254.99506474609376,172.3076473046875,254.90243474609375Q172.4809573046875,254.80979474609376,172.6625073046875,254.73459474609376Q172.8440573046875,254.65939474609374,173.0320973046875,254.60235474609374Q173.2201443046875,254.54531474609374,173.4128763046875,254.50697474609376Q173.6056073046875,254.46863474609376,173.8011683046875,254.44937474609375Q173.9967303046875,254.43011474609375,174.1932373046875,254.43011474609375Q174.3897443046875,254.43011474609375,174.5853063046875,254.44937474609375Q174.7808673046875,254.46863474609376,174.9735983046875,254.50697474609376Q175.1663303046875,254.54531474609374,175.3543773046875,254.60235474609374Q175.5424173046875,254.65939474609374,175.7239673046875,254.73459474609376Q175.9055173046875,254.80979474609376,176.0788273046875,254.90243474609375Q176.2521273046875,254.99506474609376,176.4155173046875,255.10423474609374Q176.5789073046875,255.21341474609375,176.7308073046875,255.33807474609375Q176.8827173046875,255.46273474609376,177.0216673046875,255.60168474609375Q177.1606173046875,255.74063474609375,177.2852773046875,255.89254474609376Q177.4099373046875,256.04444474609375,177.5191173046875,256.20783474609374Q177.6282873046875,256.37122474609373,177.7209173046875,256.54452474609377Q177.8135573046875,256.71783474609373,177.8887573046875,256.89938474609374Q177.9639573046875,257.08093474609376,178.0209973046875,257.26897474609376Q178.0780373046875,257.45702174609374,178.1163773046875,257.6497537460937Q178.1547173046875,257.84248474609376,178.1739773046875,258.03804574609376Q178.1932373046875,258.23360774609375,178.1932373046875,258.43011474609375Z" fill="#FFFFFF" fill-opacity="1"/></g><g style="mix-blend-mode:passthrough"><path d="M241.03863730468748,280.33331298828125L174.1932373046875,280.33331298828125L174.1932373046875,272.33331298828125L241.03863730468748,272.33331298828125L241.03863730468748,280.33331298828125ZM245.03863730468748,276.33331298828125Q245.03863730468748,276.52981998828125,245.0193373046875,276.72538198828124Q245.00013730468748,276.92094298828124,244.96173730468752,277.1136739882813Q244.9234373046875,277.30640598828126,244.8664373046875,277.49445298828124Q244.80933730468752,277.68249298828124,244.7341373046875,277.86404298828126Q244.6589373046875,278.04559298828127,244.5663373046875,278.21890298828123Q244.4736373046875,278.39220298828127,244.3645373046875,278.55559298828126Q244.2553373046875,278.71898298828125,244.1306373046875,278.87088298828127Q244.00603730468748,279.02279298828125,243.8670373046875,279.1617429882813Q243.7281373046875,279.30069298828124,243.57623730468748,279.42535298828125Q243.4243373046875,279.55001298828125,243.2609373046875,279.65919298828123Q243.0975373046875,279.76836298828124,242.9242373046875,279.8609929882812Q242.7509373046875,279.95363298828124,242.5693373046875,280.02883298828124Q242.38783730468748,280.10403298828123,242.19973730468752,280.16107298828126Q242.0117373046875,280.21811298828123,241.8190373046875,280.25645298828124Q241.6262373046875,280.29479298828124,241.4307373046875,280.3140529882813Q241.2351373046875,280.33331298828125,241.03863730468748,280.33331298828125Q240.8421373046875,280.33331298828125,240.6465373046875,280.3140529882813Q240.4510373046875,280.29479298828124,240.2582373046875,280.25645298828124Q240.0655373046875,280.21811298828123,239.8775373046875,280.16107298828126Q239.6894373046875,280.10403298828123,239.50793730468752,280.02883298828124Q239.3263373046875,279.95363298828124,239.1530373046875,279.8609929882812Q238.9797373046875,279.76836298828124,238.8163373046875,279.65919298828123Q238.6529373046875,279.55001298828125,238.5010373046875,279.42535298828125Q238.3491373046875,279.30069298828124,238.2102373046875,279.1617429882813Q238.0712373046875,279.02279298828125,237.9466373046875,278.87088298828127Q237.8219373046875,278.71898298828125,237.7127373046875,278.55559298828126Q237.6035373046875,278.39220298828127,237.5109373046875,278.21890298828123Q237.4183373046875,278.04559298828127,237.3431373046875,277.86404298828126Q237.2679373046875,277.68249298828124,237.21083730468752,277.49445298828124Q237.1538373046875,277.30640598828126,237.1155373046875,277.1136739882813Q237.07713730468748,276.92094298828124,237.0579373046875,276.72538198828124Q237.03863730468748,276.52981998828125,237.03863730468748,276.33331298828125Q237.03863730468748,276.13680598828125,237.0579373046875,275.94124398828126Q237.07713730468748,275.74568298828126,237.1155373046875,275.5529519882812Q237.1538373046875,275.36021998828124,237.21083730468752,275.17217298828126Q237.2679373046875,274.98413298828126,237.3431373046875,274.80258298828124Q237.4183373046875,274.62103298828123,237.5109373046875,274.44772298828127Q237.6035373046875,274.27442298828123,237.7127373046875,274.11103298828124Q237.8219373046875,273.94764298828125,237.9466373046875,273.79574298828123Q238.0712373046875,273.64383298828125,238.2102373046875,273.5048829882812Q238.3491373046875,273.36593298828126,238.5010373046875,273.24127298828125Q238.6529373046875,273.11661298828125,238.8163373046875,273.00743298828127Q238.9797373046875,272.89826298828126,239.1530373046875,272.8056329882813Q239.3263373046875,272.71299298828126,239.50793730468752,272.63779298828126Q239.6894373046875,272.56259298828127,239.8775373046875,272.50555298828124Q240.0655373046875,272.44851298828127,240.2582373046875,272.41017298828126Q240.4510373046875,272.37183298828126,240.6465373046875,272.3525729882812Q240.8421373046875,272.33331298828125,241.03863730468748,272.33331298828125Q241.2351373046875,272.33331298828125,241.4307373046875,272.3525729882812Q241.6262373046875,272.37183298828126,241.8190373046875,272.41017298828126Q242.0117373046875,272.44851298828127,242.19973730468752,272.50555298828124Q242.38783730468748,272.56259298828127,242.5693373046875,272.63779298828126Q242.7509373046875,272.71299298828126,242.9242373046875,272.8056329882813Q243.0975373046875,272.89826298828126,243.2609373046875,273.00743298828127Q243.4243373046875,273.11661298828125,243.57623730468748,273.24127298828125Q243.7281373046875,273.36593298828126,243.8670373046875,273.5048829882812Q244.00603730468748,273.64383298828125,244.1306373046875,273.79574298828123Q244.2553373046875,273.94764298828125,244.3645373046875,274.11103298828124Q244.4736373046875,274.27442298828123,244.5663373046875,274.44772298828127Q244.6589373046875,274.62103298828123,244.7341373046875,274.80258298828124Q244.80933730468752,274.98413298828126,244.8664373046875,275.17217298828126Q244.9234373046875,275.36021998828124,244.96173730468752,275.5529519882812Q245.00013730468748,275.74568298828126,245.0193373046875,275.94124398828126Q245.03863730468748,276.13680598828125,245.03863730468748,276.33331298828125ZM178.1932373046875,276.33331298828125Q178.1932373046875,276.52981998828125,178.1739773046875,276.72538198828124Q178.1547173046875,276.92094298828124,178.1163773046875,277.1136739882813Q178.0780373046875,277.30640598828126,178.0209973046875,277.49445298828124Q177.9639573046875,277.68249298828124,177.8887573046875,277.86404298828126Q177.8135573046875,278.04559298828127,177.7209173046875,278.21890298828123Q177.6282873046875,278.39220298828127,177.5191173046875,278.55559298828126Q177.4099373046875,278.71898298828125,177.2852773046875,278.87088298828127Q177.1606173046875,279.02279298828125,177.0216673046875,279.1617429882813Q176.8827173046875,279.30069298828124,176.7308073046875,279.42535298828125Q176.5789073046875,279.55001298828125,176.4155173046875,279.65919298828123Q176.2521273046875,279.76836298828124,176.0788273046875,279.8609929882812Q175.9055173046875,279.95363298828124,175.7239673046875,280.02883298828124Q175.5424173046875,280.10403298828123,175.3543773046875,280.16107298828126Q175.1663303046875,280.21811298828123,174.9735983046875,280.25645298828124Q174.7808673046875,280.29479298828124,174.5853063046875,280.3140529882813Q174.3897443046875,280.33331298828125,174.1932373046875,280.33331298828125Q173.9967303046875,280.33331298828125,173.8011683046875,280.3140529882813Q173.6056073046875,280.29479298828124,173.4128763046875,280.25645298828124Q173.2201443046875,280.21811298828123,173.0320973046875,280.16107298828126Q172.8440573046875,280.10403298828123,172.6625073046875,280.02883298828124Q172.4809573046875,279.95363298828124,172.3076473046875,279.8609929882812Q172.1343473046875,279.76836298828124,171.9709573046875,279.65919298828123Q171.8075673046875,279.55001298828125,171.6556673046875,279.42535298828125Q171.5037573046875,279.30069298828124,171.3648073046875,279.1617429882813Q171.2258573046875,279.02279298828125,171.1011973046875,278.87088298828127Q170.9765373046875,278.71898298828125,170.8673573046875,278.55559298828126Q170.7581873046875,278.39220298828127,170.6655573046875,278.21890298828123Q170.5729173046875,278.04559298828127,170.4977173046875,277.86404298828126Q170.4225173046875,277.68249298828124,170.3654773046875,277.49445298828124Q170.3084373046875,277.30640598828126,170.2700973046875,277.1136739882813Q170.2317573046875,276.92094298828124,170.2124973046875,276.72538198828124Q170.1932373046875,276.52981998828125,170.1932373046875,276.33331298828125Q170.1932373046875,276.13680598828125,170.2124973046875,275.94124398828126Q170.2317573046875,275.74568298828126,170.2700973046875,275.5529519882812Q170.3084373046875,275.36021998828124,170.3654773046875,275.17217298828126Q170.4225173046875,274.98413298828126,170.4977173046875,274.80258298828124Q170.5729173046875,274.62103298828123,170.6655573046875,274.44772298828127Q170.7581873046875,274.27442298828123,170.8673573046875,274.11103298828124Q170.9765373046875,273.94764298828125,171.1011973046875,273.79574298828123Q171.2258573046875,273.64383298828125,171.3648073046875,273.5048829882812Q171.5037573046875,273.36593298828126,171.6556673046875,273.24127298828125Q171.8075673046875,273.11661298828125,171.9709573046875,273.00743298828127Q172.1343473046875,272.89826298828126,172.3076473046875,272.8056329882813Q172.4809573046875,272.71299298828126,172.6625073046875,272.63779298828126Q172.8440573046875,272.56259298828127,173.0320973046875,272.50555298828124Q173.2201443046875,272.44851298828127,173.4128763046875,272.41017298828126Q173.6056073046875,272.37183298828126,173.8011683046875,272.3525729882812Q173.9967303046875,272.33331298828125,174.1932373046875,272.33331298828125Q174.3897443046875,272.33331298828125,174.5853063046875,272.3525729882812Q174.7808673046875,272.37183298828126,174.9735983046875,272.41017298828126Q175.1663303046875,272.44851298828127,175.3543773046875,272.50555298828124Q175.5424173046875,272.56259298828127,175.7239673046875,272.63779298828126Q175.9055173046875,272.71299298828126,176.0788273046875,272.8056329882813Q176.2521273046875,272.89826298828126,176.4155173046875,273.00743298828127Q176.5789073046875,273.11661298828125,176.7308073046875,273.24127298828125Q176.8827173046875,273.36593298828126,177.0216673046875,273.5048829882812Q177.1606173046875,273.64383298828125,177.2852773046875,273.79574298828123Q177.4099373046875,273.94764298828125,177.5191173046875,274.11103298828124Q177.6282873046875,274.27442298828123,177.7209173046875,274.44772298828127Q177.8135573046875,274.62103298828123,177.8887573046875,274.80258298828124Q177.9639573046875,274.98413298828126,178.0209973046875,275.17217298828126Q178.0780373046875,275.36021998828124,178.1163773046875,275.5529519882812Q178.1547173046875,275.74568298828126,178.1739773046875,275.94124398828126Q178.1932373046875,276.13680598828125,178.1932373046875,276.33331298828125Z" fill="#FFFFFF" fill-opacity="1"/></g><g style="mix-blend-mode:passthrough"><path d="M241.03863730468748,298.236572265625L174.1932373046875,298.236572265625L174.1932373046875,290.236572265625L241.03863730468748,290.236572265625L241.03863730468748,298.236572265625ZM245.03863730468748,294.236572265625Q245.03863730468748,294.433079265625,245.0193373046875,294.628641265625Q245.00013730468748,294.824202265625,244.96173730468752,295.016933265625Q244.9234373046875,295.209665265625,244.8664373046875,295.397712265625Q244.80933730468752,295.585752265625,244.7341373046875,295.767302265625Q244.6589373046875,295.948852265625,244.5663373046875,296.122162265625Q244.4736373046875,296.295462265625,244.3645373046875,296.458852265625Q244.2553373046875,296.622242265625,244.1306373046875,296.774142265625Q244.00603730468748,296.926052265625,243.8670373046875,297.065002265625Q243.7281373046875,297.203952265625,243.57623730468748,297.328612265625Q243.4243373046875,297.453272265625,243.2609373046875,297.562452265625Q243.0975373046875,297.671622265625,242.9242373046875,297.764252265625Q242.7509373046875,297.856892265625,242.5693373046875,297.932092265625Q242.38783730468748,298.007292265625,242.19973730468752,298.064332265625Q242.0117373046875,298.121372265625,241.8190373046875,298.159712265625Q241.6262373046875,298.198052265625,241.4307373046875,298.217312265625Q241.2351373046875,298.236572265625,241.03863730468748,298.236572265625Q240.8421373046875,298.236572265625,240.6465373046875,298.217312265625Q240.4510373046875,298.198052265625,240.2582373046875,298.159712265625Q240.0655373046875,298.121372265625,239.8775373046875,298.064332265625Q239.6894373046875,298.007292265625,239.50793730468752,297.932092265625Q239.3263373046875,297.856892265625,239.1530373046875,297.764252265625Q238.9797373046875,297.671622265625,238.8163373046875,297.562452265625Q238.6529373046875,297.453272265625,238.5010373046875,297.328612265625Q238.3491373046875,297.203952265625,238.2102373046875,297.065002265625Q238.0712373046875,296.926052265625,237.9466373046875,296.774142265625Q237.8219373046875,296.622242265625,237.7127373046875,296.458852265625Q237.6035373046875,296.295462265625,237.5109373046875,296.122162265625Q237.4183373046875,295.948852265625,237.3431373046875,295.767302265625Q237.2679373046875,295.585752265625,237.21083730468752,295.397712265625Q237.1538373046875,295.209665265625,237.1155373046875,295.016933265625Q237.07713730468748,294.824202265625,237.0579373046875,294.628641265625Q237.03863730468748,294.433079265625,237.03863730468748,294.236572265625Q237.03863730468748,294.040065265625,237.0579373046875,293.844503265625Q237.07713730468748,293.648942265625,237.1155373046875,293.456211265625Q237.1538373046875,293.263479265625,237.21083730468752,293.075432265625Q237.2679373046875,292.887392265625,237.3431373046875,292.705842265625Q237.4183373046875,292.524292265625,237.5109373046875,292.350982265625Q237.6035373046875,292.177682265625,237.7127373046875,292.014292265625Q237.8219373046875,291.850902265625,237.9466373046875,291.699002265625Q238.0712373046875,291.547092265625,238.2102373046875,291.408142265625Q238.3491373046875,291.269192265625,238.5010373046875,291.144532265625Q238.6529373046875,291.019872265625,238.8163373046875,290.910692265625Q238.9797373046875,290.801522265625,239.1530373046875,290.708892265625Q239.3263373046875,290.616252265625,239.50793730468752,290.541052265625Q239.6894373046875,290.465852265625,239.8775373046875,290.408812265625Q240.0655373046875,290.351772265625,240.2582373046875,290.313432265625Q240.4510373046875,290.275092265625,240.6465373046875,290.255832265625Q240.8421373046875,290.236572265625,241.03863730468748,290.236572265625Q241.2351373046875,290.236572265625,241.4307373046875,290.255832265625Q241.6262373046875,290.275092265625,241.8190373046875,290.313432265625Q242.0117373046875,290.351772265625,242.19973730468752,290.408812265625Q242.38783730468748,290.465852265625,242.5693373046875,290.541052265625Q242.7509373046875,290.616252265625,242.9242373046875,290.708892265625Q243.0975373046875,290.801522265625,243.2609373046875,290.910692265625Q243.4243373046875,291.019872265625,243.57623730468748,291.144532265625Q243.7281373046875,291.269192265625,243.8670373046875,291.408142265625Q244.00603730468748,291.547092265625,244.1306373046875,291.699002265625Q244.2553373046875,291.850902265625,244.3645373046875,292.014292265625Q244.4736373046875,292.177682265625,244.5663373046875,292.350982265625Q244.6589373046875,292.524292265625,244.7341373046875,292.705842265625Q244.80933730468752,292.887392265625,244.8664373046875,293.075432265625Q244.9234373046875,293.263479265625,244.96173730468752,293.456211265625Q245.00013730468748,293.648942265625,245.0193373046875,293.844503265625Q245.03863730468748,294.040065265625,245.03863730468748,294.236572265625ZM178.1932373046875,294.236572265625Q178.1932373046875,294.433079265625,178.1739773046875,294.628641265625Q178.1547173046875,294.824202265625,178.1163773046875,295.016933265625Q178.0780373046875,295.209665265625,178.0209973046875,295.397712265625Q177.9639573046875,295.585752265625,177.8887573046875,295.767302265625Q177.8135573046875,295.948852265625,177.7209173046875,296.122162265625Q177.6282873046875,296.295462265625,177.5191173046875,296.458852265625Q177.4099373046875,296.622242265625,177.2852773046875,296.774142265625Q177.1606173046875,296.926052265625,177.0216673046875,297.065002265625Q176.8827173046875,297.203952265625,176.7308073046875,297.328612265625Q176.5789073046875,297.453272265625,176.4155173046875,297.562452265625Q176.2521273046875,297.671622265625,176.0788273046875,297.764252265625Q175.9055173046875,297.856892265625,175.7239673046875,297.932092265625Q175.5424173046875,298.007292265625,175.3543773046875,298.064332265625Q175.1663303046875,298.121372265625,174.9735983046875,298.159712265625Q174.7808673046875,298.198052265625,174.5853063046875,298.217312265625Q174.3897443046875,298.236572265625,174.1932373046875,298.236572265625Q173.9967303046875,298.236572265625,173.8011683046875,298.217312265625Q173.6056073046875,298.198052265625,173.4128763046875,298.159712265625Q173.2201443046875,298.121372265625,173.0320973046875,298.064332265625Q172.8440573046875,298.007292265625,172.6625073046875,297.932092265625Q172.4809573046875,297.856892265625,172.3076473046875,297.764252265625Q172.1343473046875,297.671622265625,171.9709573046875,297.562452265625Q171.8075673046875,297.453272265625,171.6556673046875,297.328612265625Q171.5037573046875,297.203952265625,171.3648073046875,297.065002265625Q171.2258573046875,296.926052265625,171.1011973046875,296.774142265625Q170.9765373046875,296.622242265625,170.8673573046875,296.458852265625Q170.7581873046875,296.295462265625,170.6655573046875,296.122162265625Q170.5729173046875,295.948852265625,170.4977173046875,295.767302265625Q170.4225173046875,295.585752265625,170.3654773046875,295.397712265625Q170.3084373046875,295.209665265625,170.2700973046875,295.016933265625Q170.2317573046875,294.824202265625,170.2124973046875,294.628641265625Q170.1932373046875,294.433079265625,170.1932373046875,294.236572265625Q170.1932373046875,294.040065265625,170.2124973046875,293.844503265625Q170.2317573046875,293.648942265625,170.2700973046875,293.456211265625Q170.3084373046875,293.263479265625,170.3654773046875,293.075432265625Q170.4225173046875,292.887392265625,170.4977173046875,292.705842265625Q170.5729173046875,292.524292265625,170.6655573046875,292.350982265625Q170.7581873046875,292.177682265625,170.8673573046875,292.014292265625Q170.9765373046875,291.850902265625,171.1011973046875,291.699002265625Q171.2258573046875,291.547092265625,171.3648073046875,291.408142265625Q171.5037573046875,291.269192265625,171.6556673046875,291.144532265625Q171.8075673046875,291.019872265625,171.9709573046875,290.910692265625Q172.1343473046875,290.801522265625,172.3076473046875,290.708892265625Q172.4809573046875,290.616252265625,172.6625073046875,290.541052265625Q172.8440573046875,290.465852265625,173.0320973046875,290.408812265625Q173.2201443046875,290.351772265625,173.4128763046875,290.313432265625Q173.6056073046875,290.275092265625,173.8011683046875,290.255832265625Q173.9967303046875,290.236572265625,174.1932373046875,290.236572265625Q174.3897443046875,290.236572265625,174.5853063046875,290.255832265625Q174.7808673046875,290.275092265625,174.9735983046875,290.313432265625Q175.1663303046875,290.351772265625,175.3543773046875,290.408812265625Q175.5424173046875,290.465852265625,175.7239673046875,290.541052265625Q175.9055173046875,290.616252265625,176.0788273046875,290.708892265625Q176.2521273046875,290.801522265625,176.4155173046875,290.910692265625Q176.5789073046875,291.019872265625,176.7308073046875,291.144532265625Q176.8827173046875,291.269192265625,177.0216673046875,291.408142265625Q177.1606173046875,291.547092265625,177.2852773046875,291.699002265625Q177.4099373046875,291.850902265625,177.5191173046875,292.014292265625Q177.6282873046875,292.177682265625,177.7209173046875,292.350982265625Q177.8135573046875,292.524292265625,177.8887573046875,292.705842265625Q177.9639573046875,292.887392265625,178.0209973046875,293.075432265625Q178.0780373046875,293.263479265625,178.1163773046875,293.456211265625Q178.1547173046875,293.648942265625,178.1739773046875,293.844503265625Q178.1932373046875,294.040065265625,178.1932373046875,294.236572265625Z" fill="#FFFFFF" fill-opacity="1"/></g><g style="mix-blend-mode:passthrough"><path d="M233.4638,153L233.4638,179.362Q233.4638,184.45159999999998,235.4263,189.0916Q237.3236,193.5772,240.7861,197.0397Q244.2486,200.50220000000002,248.7342,202.3994Q253.3742,204.362,258.464,204.362L262.217,204.362L292,204.362L292,214.362L262.217,214.362L258.464,214.362Q251.34640000000002,214.362,244.83870000000002,211.6095Q238.5567,208.9524,233.715,204.1107Q228.8733,199.2691,226.2163,192.9871Q223.4638,186.4794,223.4638,179.362L223.4638,153L233.4638,153ZM191.7319,148L230.3619,148L297,207.1136L297,308Q297,315.11699999999996,294.247,321.625Q291.59000000000003,327.90700000000004,286.749,332.749Q281.907,337.59000000000003,275.625,340.247Q269.117,343,262,343L185,343Q177.8826,343,171.3749,340.247Q165.093,337.59000000000003,160.25126,332.749Q155.409543,327.90700000000004,152.75252,321.625Q150,315.11699999999996,150,308L150,183Q150,175.8826,152.75253,169.3749Q155.409551,163.093,160.25126,158.25126Q165.093,153.409554,171.3749,150.75253Q177.8826,148,185,148L191.7319,148ZM191.7319,158L185,158Q179.9104,158,175.2704,159.96257Q170.7849,161.8598,167.3223,165.3223Q163.85979,168.7849,161.96257,173.2704Q160,177.9104,160,183L160,308Q160,313.09000000000003,161.96257,317.73Q163.85977,322.21500000000003,167.3223,325.678Q170.7849,329.14,175.2704,331.03700000000003Q179.9105,333,185,333L262,333Q267.09000000000003,333,271.73,331.03700000000003Q276.21500000000003,329.14,279.678,325.678Q283.14,322.21500000000003,285.03700000000003,317.73Q287,313.09000000000003,287,308L287,209.362L292,209.362L288.682,213.1024L225.1457,156.7404L228.4638,153L228.4638,158L191.7319,158Z" fill="#FFFFFF" fill-opacity="1"/></g></g></g></g></svg>