<svg xmlns="http://www.w3.org/2000/svg" xmlns:xlink="http://www.w3.org/1999/xlink" fill="none" version="1.1" width="60" height="240" viewBox="0 0 60 240"><defs><clipPath id="master_svg0_15_51"><rect x="0" y="0" width="60" height="240" rx="0"/></clipPath></defs><g style="mix-blend-mode:passthrough"><g style="mix-blend-mode:passthrough" clip-path="url(#master_svg0_15_51)"><rect x="0" y="0" width="60" height="240" rx="0" fill="#FFFFFF" fill-opacity="0"/><g style="mix-blend-mode:passthrough"><path d="M39.3184,197.756L10.67545,121.3848L39.2917,41.31724L48.7083,44.68276L20.70832,123.0261L16,121.3434L20.68157,119.5876L48.6816,194.244L39.3184,197.756ZM49,196Q49,196.123,48.994,196.245Q48.988,196.368,48.9759,196.49Q48.9639,196.612,48.9459,196.734Q48.9279,196.855,48.9039,196.975Q48.88,197.096,48.8502,197.215Q48.8203,197.334,48.7847,197.451Q48.7491,197.569,48.7077,197.684Q48.6664,197.8,48.6194,197.913Q48.5724,198.027,48.5199,198.138Q48.4675,198.249,48.4096,198.357Q48.3517,198.465,48.2886,198.57Q48.2255,198.676,48.1573,198.778Q48.0891,198.88,48.016,198.978Q47.9429,199.077,47.8651,199.172Q47.7872,199.267,47.7048,199.358Q47.622299999999996,199.449,47.5355,199.536Q47.4487,199.622,47.3578,199.705Q47.2668,199.787,47.172,199.865Q47.0771,199.943,46.9785,200.016Q46.8799,200.089,46.7778,200.157Q46.675799999999995,200.226,46.570499999999996,200.289Q46.465199999999996,200.352,46.357,200.41Q46.2487,200.467,46.1378,200.52Q46.0268,200.572,45.913399999999996,200.619Q45.8,200.666,45.6844,200.708Q45.5689,200.749,45.4514,200.785Q45.334,200.82,45.2149,200.85Q45.0958,200.88,44.9755,200.904Q44.8551,200.928,44.7337,200.946Q44.6122,200.964,44.4901,200.976Q44.3679,200.988,44.2453,200.994Q44.122699999999995,201,44,201Q43.877300000000005,201,43.7547,200.994Q43.6321,200.988,43.5099,200.976Q43.3878,200.964,43.2663,200.946Q43.1449,200.928,43.0245,200.904Q42.9042,200.88,42.7851,200.85Q42.666,200.82,42.5486,200.785Q42.4311,200.749,42.3155,200.708Q42.2,200.666,42.086600000000004,200.619Q41.9732,200.572,41.8622,200.52Q41.7513,200.467,41.643,200.41Q41.534800000000004,200.352,41.429500000000004,200.289Q41.324200000000005,200.226,41.2221,200.157Q41.1201,200.089,41.0215,200.016Q40.9229,199.943,40.828,199.865Q40.7332,199.787,40.6422,199.705Q40.5513,199.622,40.4645,199.536Q40.377700000000004,199.449,40.2952,199.358Q40.2128,199.267,40.1349,199.172Q40.0571,199.077,39.984,198.978Q39.910799999999995,198.88,39.8427,198.778Q39.7745,198.676,39.7114,198.57Q39.6483,198.465,39.5904,198.357Q39.5325,198.249,39.4801,198.138Q39.4276,198.027,39.3806,197.913Q39.333600000000004,197.8,39.2923,197.684Q39.2509,197.569,39.2153,197.451Q39.1797,197.334,39.1498,197.215Q39.120000000000005,197.096,39.0961,196.975Q39.0721,196.855,39.0541,196.734Q39.036100000000005,196.612,39.024100000000004,196.49Q39.012,196.368,39.006,196.245Q39,196.123,39,196Q39,195.877,39.006,195.755Q39.012,195.632,39.024100000000004,195.51Q39.036100000000005,195.388,39.0541,195.266Q39.0721,195.145,39.0961,195.025Q39.120000000000005,194.904,39.1498,194.785Q39.1797,194.666,39.2153,194.549Q39.2509,194.431,39.2923,194.316Q39.333600000000004,194.2,39.3806,194.087Q39.4276,193.973,39.4801,193.862Q39.5325,193.751,39.5904,193.643Q39.6483,193.535,39.7114,193.429Q39.7745,193.324,39.8427,193.222Q39.910799999999995,193.12,39.984,193.021Q40.0571,192.923,40.1349,192.828Q40.2128,192.733,40.2952,192.642Q40.377700000000004,192.551,40.4645,192.464Q40.5513,192.378,40.6422,192.295Q40.7332,192.213,40.828,192.135Q40.9229,192.057,41.0215,191.984Q41.1201,191.911,41.2221,191.843Q41.324200000000005,191.774,41.429500000000004,191.711Q41.534800000000004,191.648,41.643,191.59Q41.7513,191.533,41.8622,191.48Q41.9732,191.428,42.086600000000004,191.381Q42.2,191.334,42.3155,191.292Q42.4311,191.251,42.5486,191.215Q42.666,191.18,42.7851,191.15Q42.9042,191.12,43.0245,191.096Q43.1449,191.072,43.2663,191.054Q43.3878,191.036,43.5099,191.024Q43.6321,191.012,43.7547,191.006Q43.877300000000005,191,44,191Q44.122699999999995,191,44.2453,191.006Q44.3679,191.012,44.4901,191.024Q44.6122,191.036,44.7337,191.054Q44.8551,191.072,44.9755,191.096Q45.0958,191.12,45.2149,191.15Q45.334,191.18,45.4514,191.215Q45.5689,191.251,45.6844,191.292Q45.8,191.334,45.913399999999996,191.381Q46.0268,191.428,46.1378,191.48Q46.2487,191.533,46.357,191.59Q46.465199999999996,191.648,46.570499999999996,191.711Q46.675799999999995,191.774,46.7779,191.843Q46.8799,191.911,46.9785,191.984Q47.0771,192.057,47.172,192.135Q47.2668,192.213,47.3578,192.295Q47.4487,192.378,47.5355,192.464Q47.622299999999996,192.551,47.7048,192.642Q47.7872,192.733,47.8651,192.828Q47.9429,192.923,48.016,193.021Q48.0891,193.12,48.1573,193.222Q48.2255,193.324,48.2886,193.429Q48.3517,193.535,48.4096,193.643Q48.4675,193.751,48.52,193.862Q48.5724,193.973,48.6194,194.087Q48.6664,194.2,48.7077,194.316Q48.7491,194.431,48.7847,194.549Q48.8203,194.666,48.8502,194.785Q48.88,194.904,48.9039,195.025Q48.9279,195.145,48.9459,195.266Q48.9639,195.388,48.9759,195.51Q48.988,195.632,48.994,195.755Q49,195.877,49,196ZM49,43Q49,43.122743,48.994,43.245338Q48.988,43.367934,48.9759,43.490086Q48.9639,43.612238,48.9459,43.733652Q48.9279,43.855067,48.9039,43.975451Q48.88,44.09584,48.8502,44.2149Q48.8203,44.33397,48.7847,44.45142Q48.7491,44.56888,48.7077,44.68445Q48.6664,44.80002,48.6194,44.91342Q48.5724,45.02682,48.5199,45.13778Q48.4675,45.24873,48.4096,45.35698Q48.3517,45.46523,48.2886,45.57051Q48.2255,45.67579,48.1573,45.77785Q48.0891,45.87991,48.016,45.9785Q47.9429,46.07708,47.8651,46.17197Q47.7872,46.26685,47.7048,46.35779Q47.622299999999996,46.44874,47.5355,46.53553Q47.4487,46.62233,47.3578,46.70476Q47.2668,46.78718,47.172,46.86505Q47.0771,46.94292,46.9785,47.016040000000004Q46.8799,47.08916,46.7778,47.15735Q46.675799999999995,47.22554,46.570499999999996,47.28864Q46.465199999999996,47.35175,46.357,47.40961Q46.2487,47.46747,46.1378,47.51995Q46.0268,47.57243,45.913399999999996,47.6194Q45.8,47.66637,45.6844,47.70772Q45.5689,47.74907,45.4514,47.7847Q45.334,47.82033,45.2149,47.85016Q45.0958,47.87998,44.9755,47.90393Q44.8551,47.92787,44.7337,47.94588Q44.6122,47.96389,44.4901,47.97592Q44.3679,47.98795,44.2453,47.99398Q44.122699999999995,48,44,48Q43.877300000000005,48,43.7547,47.99398Q43.6321,47.98795,43.5099,47.97592Q43.3878,47.96389,43.2663,47.94588Q43.1449,47.92787,43.0245,47.90393Q42.9042,47.87998,42.7851,47.85016Q42.666,47.82033,42.5486,47.7847Q42.4311,47.74907,42.3155,47.70772Q42.2,47.66637,42.086600000000004,47.6194Q41.9732,47.57243,41.8622,47.51995Q41.7513,47.46747,41.643,47.40961Q41.534800000000004,47.35175,41.429500000000004,47.28864Q41.324200000000005,47.22554,41.2221,47.15735Q41.1201,47.08916,41.0215,47.016040000000004Q40.9229,46.94292,40.828,46.86505Q40.7332,46.78718,40.6422,46.70476Q40.5513,46.62233,40.4645,46.53553Q40.377700000000004,46.44874,40.2952,46.35779Q40.2128,46.26685,40.1349,46.17197Q40.0571,46.07708,39.984,45.9785Q39.910799999999995,45.87991,39.8427,45.77785Q39.7745,45.67579,39.7114,45.57051Q39.6483,45.46523,39.5904,45.35698Q39.5325,45.24873,39.4801,45.13778Q39.4276,45.02682,39.3806,44.91342Q39.333600000000004,44.80002,39.2923,44.68445Q39.2509,44.56888,39.2153,44.45142Q39.1797,44.33397,39.1498,44.2149Q39.120000000000005,44.09584,39.0961,43.975451Q39.0721,43.855067,39.0541,43.733652Q39.036100000000005,43.612238,39.024100000000004,43.490086Q39.012,43.367934,39.006,43.245338Q39,43.122743,39,43Q39,42.877257,39.006,42.754662Q39.012,42.632066,39.024100000000004,42.509914Q39.036100000000005,42.387762,39.0541,42.266348Q39.0721,42.144933,39.0961,42.024549Q39.120000000000005,41.90416,39.1498,41.7851Q39.1797,41.66603,39.2153,41.54858Q39.2509,41.43112,39.2923,41.31555Q39.333600000000004,41.19998,39.3806,41.08658Q39.4276,40.97318,39.4801,40.86222Q39.5325,40.75127,39.5904,40.64302Q39.6483,40.53477,39.7114,40.42949Q39.7745,40.32421,39.8427,40.22215Q39.910799999999995,40.12009,39.984,40.0215Q40.0571,39.92292,40.1349,39.82803Q40.2128,39.73315,40.2952,39.64221Q40.377700000000004,39.55126,40.4645,39.46447Q40.5513,39.37767,40.6422,39.29524Q40.7332,39.21282,40.828,39.13495Q40.9229,39.05708,41.0215,38.983959999999996Q41.1201,38.91084,41.2221,38.84265Q41.324200000000005,38.77446,41.429500000000004,38.71136Q41.534800000000004,38.64825,41.643,38.59039Q41.7513,38.53253,41.8622,38.48005Q41.9732,38.42757,42.086600000000004,38.3806Q42.2,38.33363,42.3155,38.29228Q42.4311,38.25093,42.5486,38.2153Q42.666,38.17967,42.7851,38.14984Q42.9042,38.12002,43.0245,38.09607Q43.1449,38.07213,43.2663,38.05412Q43.3878,38.03611,43.5099,38.02408Q43.6321,38.01205,43.7547,38.00602Q43.877300000000005,38,44,38Q44.122699999999995,38,44.2453,38.00602Q44.3679,38.01205,44.4901,38.02408Q44.6122,38.03611,44.7337,38.05412Q44.8551,38.07213,44.9755,38.09607Q45.0958,38.12002,45.2149,38.14984Q45.334,38.17967,45.4514,38.2153Q45.5689,38.25093,45.6844,38.29228Q45.8,38.33363,45.913399999999996,38.3806Q46.0268,38.42757,46.1378,38.48005Q46.2487,38.53253,46.357,38.59039Q46.465199999999996,38.64825,46.570499999999996,38.71136Q46.675799999999995,38.77446,46.7779,38.84265Q46.8799,38.91084,46.9785,38.983959999999996Q47.0771,39.05708,47.172,39.13495Q47.2668,39.21282,47.3578,39.29524Q47.4487,39.37767,47.5355,39.46447Q47.622299999999996,39.55126,47.7048,39.64221Q47.7872,39.73315,47.8651,39.82803Q47.9429,39.92292,48.016,40.0215Q48.0891,40.12009,48.1573,40.22215Q48.2255,40.32421,48.2886,40.42949Q48.3517,40.53477,48.4096,40.64302Q48.4675,40.75127,48.52,40.86222Q48.5724,40.97318,48.6194,41.08658Q48.6664,41.19998,48.7077,41.31555Q48.7491,41.43112,48.7847,41.54858Q48.8203,41.66603,48.8502,41.7851Q48.88,41.90416,48.9039,42.024549Q48.9279,42.144933,48.9459,42.266348Q48.9639,42.387762,48.9759,42.509914Q48.988,42.632066,48.994,42.754662Q49,42.877257,49,43Z" fill="#FFFFFF" fill-opacity="1"/></g></g></g></svg>